:SAMPLES-PER-SECOND 30
:FULLY-SPECIFIED
:DEGREES
218
root  -62.6562 31.3113 12.2967 159.815 -71.8258 -171.703
RightUpLeg  -35.6337 -8.98606 -3.134
RightLeg  75.1045 0.472933 0.869926
RightFoot  -26.3448 -0.302018 -0.944518
RightToes  7.56698e-010 0 -3.6325e-017
Spine  50.2317 -1.72525 -3.5148
Spine1  -14.6467 -3.74771 4.38073
HEad  -58.1136 18.9617 -46.5649
LeftShoulder1  2.00688 -6.90909 -12.1807
LeftArm  -40.3677 -63.2141 -43.8081
LeftForeArm  14.5338 -74.1178 -45.4323
LeftHand  -0.329584 8.27266 -10.7512
RightShoulder  0.541729 -0.637675 11.8708
RightArm  -78.1144 -5.60508 37.1293
RightForeArm  121.717 42.0922 168.084
RightHand  -1.66234 16.4365 -9.27573
LeftUpLeg  -34.1819 4.84406 12.7128
LeftLeg  76.9874 -0.302917 -0.154914
LeftFoot  -28.2171 -0.179271 -2.35689
LeftToes  -2.88401e-009 5.30678e-011 -1.08654e-010
219
root  -62.8116 30.6832 12.1925 157.551 -71.5739 -170.428
RightUpLeg  -35.8325 -9.06342 -2.75827
RightLeg  78.0981 0.409643 0.757658
RightFoot  -27.7603 -0.326817 -0.955638
RightToes  7.56698e-010 0 -3.6325e-017
Spine  49.5508 -1.69597 -3.02063
Spine1  -13.3121 -3.45212 3.86126
HEad  -57.2826 19.1108 -46.6747
LeftShoulder1  2.01539 -6.80177 -12.4967
LeftArm  -41.5652 -63.9041 -42.1968
LeftForeArm  12.9883 -73.62 -43.5538
LeftHand  -0.350059 8.57792 -10.3373
RightShoulder  0.538041 -0.704464 12.2916
RightArm  -75.8032 -4.37285 35.409
RightForeArm  118.821 42.7796 167.714
RightHand  -1.67602 18.7635 -8.469
LeftUpLeg  -34.3699 4.18693 13.6567
LeftLeg  80.1258 -0.257441 0.100462
LeftFoot  -29.7106 -0.251883 -2.66339
LeftToes  -2.88401e-009 5.30678e-011 -1.08654e-010
220
root  -62.9929 30.3903 12.0983 157.199 -71.3518 -171.031
RightUpLeg  -35.2983 -8.94814 -3.02027
RightLeg  79.6982 0.395102 0.789451
RightFoot  -28.5663 -0.401424 -1.37278
RightToes  7.56698e-010 0 -3.6325e-017
Spine  48.9444 -1.39004 -3.23325
Spine1  -12.4879 -3.17144 3.38923
HEad  -56.6367 20.2205 -46.263
LeftShoulder1  2.02239 -6.62936 -12.9374
LeftArm  -40.6584 -64.1762 -42.2701
LeftForeArm  11.3523 -73.0036 -41.4534
LeftHand  -0.389495 8.46349 -12.1804
RightShoulder  0.536366 -0.726065 12.5893
RightArm  -75.3526 -2.8122 34.1083
RightForeArm  116.132 43.9066 167.184
RightHand  -1.82438 17.0604 -9.82075
LeftUpLeg  -33.5535 3.84294 13.8181
LeftLeg  81.5101 -0.230736 0.355675
LeftFoot  -30.7634 -0.363451 -3.20576
LeftToes  -2.88401e-009 5.30678e-011 -1.08654e-010
221
root  -63.197 30.4039 12.0244 157.933 -71.1449 -171.954
RightUpLeg  -34.7944 -8.66503 -3.29404
RightLeg  79.891 0.39693 0.814661
RightFoot  -29.0766 -0.386483 -1.21178
RightToes  7.56698e-010 0 -3.6325e-017
Spine  48.0729 -1.21833 -3.35361
Spine1  -12.6365 -2.96739 3.10159
HEad  -57.0164 21.2978 -46.3278
LeftShoulder1  2.07112 -6.76773 -13.1665
LeftArm  -39.4664 -64.0866 -41.1213
LeftForeArm  7.64521 -72.0839 -38.9582
LeftHand  -0.356692 8.29857 -11.7411
RightShoulder  0.542105 -0.790141 13.0865
RightArm  -75.6283 -1.93609 33.1815
RightForeArm  114.374 45.5123 166.479
RightHand  -1.69409 16.2428 -9.47501
LeftUpLeg  -32.7795 3.9862 13.6723
LeftLeg  81.5107 -0.212705 0.513508
LeftFoot  -31.2433 -0.485089 -3.83937
LeftToes  -2.88401e-009 5.30678e-011 -1.08654e-010
222
root  -63.373 30.7923 11.9028 157.865 -71.4183 -171.962
RightUpLeg  -33.2778 -8.68546 -3.30595
RightLeg  78.3217 0.368743 0.545915
RightFoot  -28.9011 -0.355811 -1.03345
RightToes  7.56698e-010 0 -3.6325e-017
Spine  47.1414 -1.11369 -3.87838
Spine1  -12.7748 -3.06402 3.53898
HEad  -59.1773 21.8627 -46.3307
LeftShoulder1  2.10618 -6.69266 -13.7073
LeftArm  -37.6272 -64.24 -40.6152
LeftForeArm  4.84523 -71.1173 -36.5928
LeftHand  -0.439941 9.30132 -10.9084
RightShoulder  0.54827 -0.795455 13.4004
RightArm  -75.4022 -1.26965 31.2812
RightForeArm  112.887 47.2601 165.685
RightHand  -1.55127 15.4496 -9.06356
LeftUpLeg  -31.3461 3.85618 13.6384
LeftLeg  79.783 -0.234467 0.271699
LeftFoot  -30.9139 -0.51061 -4.03751
LeftToes  -2.88401e-009 5.30678e-011 -1.08654e-010
223
root  -63.5416 31.4889 11.7715 157.781 -71.5032 -171.547
RightUpLeg  -31.3805 -8.42969 -2.94502
RightLeg  75.1884 0.308426 0.138627
RightFoot  -27.9766 -0.324253 -0.918419
RightToes  7.56698e-010 0 -3.6325e-017
Spine  46.1343 -0.989889 -4.21852
Spine1  -12.9919 -3.04159 3.91711
HEad  -59.1509 22.6592 -46.802
LeftShoulder1  2.10037 -6.72775 -13.5671
LeftArm  -37.7931 -64.8729 -39.5418
LeftForeArm  0.917864 -69.6282 -33.4254
LeftHand  -0.457551 9.04671 -12.2462
RightShoulder  0.520765 -0.986515 13.8893
RightArm  -75.0556 -1.30862 27.3985
RightForeArm  110.626 48.8943 164.847
RightHand  -1.85315 14.5035 -11.1471
LeftUpLeg  -29.5394 4.08293 13.7937
LeftLeg  76.5973 -0.297926 -0.111586
LeftFoot  -29.9107 -0.45672 -3.89428
LeftToes  -2.88401e-009 5.30678e-011 -1.08654e-010
224
root  -63.7296 32.3406 11.6777 159.488 -71.683 -172.773
RightUpLeg  -29.3337 -8.2448 -3.24096
RightLeg  71.2509 0.262479 -0.0100258
RightFoot  -26.8008 -0.274626 -0.685659
RightToes  7.56698e-010 0 -3.6325e-017
Spine  45.1845 -0.899385 -5.31305
Spine1  -13.879 -3.36722 4.91723
HEad  -56.647 24.0386 -46.3067
LeftShoulder1  2.08154 -6.55193 -13.7555
LeftArm  -38.2823 -65.0352 -37.7412
LeftForeArm  -2.01436 -68.5655 -31.5833
LeftHand  -0.463684 9.3634 -11.4238
RightShoulder  0.539354 -0.867927 13.7157
RightArm  -74.6603 -1.14578 23.4429
RightForeArm  110.483 50.8624 163.875
RightHand  -1.86468 13.9142 -11.8152
LeftUpLeg  -27.4168 4.5215 13.2106
LeftLeg  72.3947 -0.387094 -0.382726
LeftFoot  -28.711 -0.456756 -4.12451
LeftToes  -2.88401e-009 5.30678e-011 -1.08654e-010
225
root  -63.9221 33.286 11.5531 161.391 -71.4503 -173.683
RightUpLeg  -27.5579 -7.71389 -3.08457
RightLeg  66.5992 0.153676 -0.306681
RightFoot  -25.1957 -0.230146 -0.485421
RightToes  7.56698e-010 0 -3.6325e-017
Spine  43.7948 -0.989375 -6.37828
Spine1  -14.8548 -3.77526 5.50378
HEad  -57.5154 25.0812 -44.5568
LeftShoulder1  2.02335 -6.35068 -13.5764
LeftArm  -40.5188 -65.1508 -34.8183
LeftForeArm  -5.34095 -67.4555 -29.8961
LeftHand  -0.456949 9.02375 -12.3426
RightShoulder  0.644924 -0.0850598 11.8007
RightArm  -75.0891 -1.92052 20.2601
RightForeArm  109.058 52.1125 163.155
RightHand  -2.06824 8.90154 -16.8685
LeftUpLeg  -25.4085 5.36454 12.9087
LeftLeg  67.5445 -0.500164 -0.566228
LeftFoot  -27.1173 -0.481974 -4.65445
LeftToes  -2.88401e-009 5.30678e-011 -1.08654e-010
